<?xml version="1.0" standalone="no"?>
<!DOCTYPE svg PUBLIC "-//W3C//DTD SVG 20010904//EN"
 "http://www.w3.org/TR/2001/REC-SVG-20010904/DTD/svg10.dtd">
<svg version="1.0" xmlns="http://www.w3.org/2000/svg"
 width="1919.000000pt" height="1079.000000pt" viewBox="0 0 1919.000000 1079.000000"
 preserveAspectRatio="xMidYMid meet">
<metadata>
Created by potrace 1.16, written by Peter Selinger 2001-2019
</metadata>
<g transform="translate(0.000000,1079.000000) scale(0.100000,-0.100000)"
fill="#000000" stroke="none">
<path d="M8180 5780 c-8 -5 -11 -10 -7 -10 5 0 -1 -12 -12 -26 -15 -20 -21
-41 -21 -81 0 -38 -3 -52 -11 -47 -18 11 -2 -66 20 -96 10 -13 31 -32 47 -41
29 -16 31 -16 61 11 17 16 37 39 44 52 18 33 18 170 0 192 -8 9 -16 15 -18 12
-3 -2 -21 7 -40 20 -40 27 -42 27 -63 14z m80 -49 c34 -28 35 -32 34 -93 0
-51 -5 -72 -24 -98 -13 -18 -26 -28 -28 -22 -2 6 4 22 12 34 19 26 21 42 5 32
-8 -5 -10 0 -6 17 4 13 10 35 13 49 10 37 -8 16 -22 -27 -8 -23 -10 -40 -4
-43 6 -4 3 -21 -7 -42 -15 -29 -22 -34 -38 -28 -12 4 -26 14 -33 22 -15 19
-27 78 -16 78 5 0 8 19 6 43 -3 35 1 49 23 75 15 18 32 32 39 32 6 0 27 -13
46 -29z"/>
<path d="M8389 5765 c-33 -18 -52 -80 -53 -175 0 -79 8 -92 70 -116 l45 -17
34 38 c19 21 36 40 36 44 1 3 3 15 4 26 2 11 7 35 11 54 5 23 4 32 -3 28 -6
-4 -15 11 -22 36 -21 85 -64 114 -122 82z m76 -27 c30 -27 62 -133 45 -153 -6
-7 -8 -19 -5 -27 6 -15 -51 -76 -61 -65 -4 3 1 13 10 22 21 22 20 28 -3 16
-10 -6 -22 -7 -26 -3 -4 4 -5 -3 -2 -15 6 -26 -1 -28 -37 -12 -30 14 -40 58
-30 137 13 111 53 148 109 100z"/>
<path d="M7585 5760 c-3 -5 -6 -130 -7 -277 l-1 -268 25 -3 c31 -4 38 16 38
107 0 55 5 71 32 114 21 32 44 55 67 64 33 14 36 14 53 -7 14 -17 18 -40 18
-106 0 -146 27 -221 66 -182 12 12 13 26 5 79 -6 35 -11 89 -11 119 -1 78 -15
132 -42 154 -34 27 -99 17 -149 -23 l-39 -32 0 120 c0 66 -3 126 -6 135 -7 18
-39 22 -49 6z"/>
<path d="M10217 5763 c-3 -4 -6 -132 -8 -283 l-4 -275 25 0 c25 0 25 1 33 110
4 61 6 187 5 280 -3 166 -4 170 -25 173 -11 2 -23 0 -26 -5z"/>
<path d="M12357 5763 c-2 -4 -6 -132 -8 -283 l-4 -275 25 0 c24 0 25 4 30 63
4 54 9 67 33 88 16 13 32 24 37 24 5 0 37 -40 72 -90 59 -85 87 -107 103 -79
13 20 -5 57 -64 136 l-58 80 59 61 c62 64 71 94 30 100 -17 3 -42 -16 -103
-77 -44 -45 -84 -81 -89 -81 -5 0 -11 75 -12 168 -3 162 -4 167 -25 170 -11 2
-23 0 -26 -5z"/>
<path d="M9602 5753 c-13 -3 -27 -15 -32 -28 -5 -13 -10 -135 -12 -272 l-3
-248 90 0 c62 0 104 6 137 18 52 20 118 86 118 118 0 34 -27 74 -64 94 -33 18
-47 35 -28 35 5 0 18 17 30 39 29 50 29 124 2 169 -37 61 -141 93 -238 75z
m171 -103 c24 -27 28 -39 23 -69 -9 -59 -84 -106 -150 -94 -24 5 -26 10 -26
52 0 25 3 70 7 100 l6 53 55 -4 c47 -4 60 -10 85 -38z m10 -260 c55 -26 61
-49 20 -78 -33 -23 -81 -38 -145 -48 l-48 -6 0 74 c0 41 3 78 8 82 13 14 116
-1 165 -24z"/>
<path d="M10745 5732 c-12 -12 -4 -42 14 -52 11 -5 51 -10 90 -10 l70 0 6 -42
c4 -24 9 -124 13 -222 6 -157 9 -180 25 -190 15 -9 21 -7 32 8 12 15 13 47 7
165 -4 80 -7 175 -7 211 l0 65 101 -4 c86 -3 102 -1 107 13 13 33 -3 44 -66
50 -93 8 -386 14 -392 8z"/>
<path d="M8578 5596 c-10 -20 -18 -44 -18 -52 0 -10 -6 -14 -15 -10 -24 9 -19
-83 8 -156 13 -35 22 -68 20 -74 -6 -18 47 -27 78 -13 16 6 39 27 51 47 30 49
28 175 -5 244 -23 50 -39 57 -74 33 -19 -14 -22 -13 -25 1 -2 11 -9 4 -20 -20z
m107 -38 c25 -63 25 -165 0 -203 -12 -16 -29 -31 -39 -33 -17 -4 -17 -1 4 28
12 17 19 34 15 38 -4 4 -10 1 -12 -6 -7 -19 -51 -68 -55 -62 -28 39 -62 200
-39 186 7 -5 11 2 11 16 0 25 54 77 81 78 10 0 24 -16 34 -42z"/>
<path d="M7375 5593 c-22 -8 -60 -22 -83 -30 -71 -25 -104 -104 -64 -152 10
-12 44 -29 81 -39 47 -12 70 -25 85 -45 l21 -29 -24 -19 c-29 -23 -103 -25
-145 -4 -36 19 -52 19 -60 0 -16 -43 41 -78 129 -79 100 -1 155 37 155 109 0
63 -44 106 -132 129 -41 10 -53 18 -53 32 0 20 49 49 102 60 25 5 31 2 36 -15
6 -25 45 -29 54 -5 3 8 2 34 -3 57 -8 35 -13 42 -34 44 -14 1 -43 -5 -65 -14z"/>
<path d="M11365 5581 c-98 -37 -112 -46 -125 -85 -17 -53 -4 -85 44 -107 22
-10 49 -19 59 -19 30 0 75 -28 83 -52 16 -50 -88 -78 -157 -42 -38 19 -59 12
-59 -20 0 -77 229 -82 270 -7 19 37 12 97 -16 130 -23 28 -45 37 -152 67 -40
11 24 66 94 80 26 5 32 2 37 -15 3 -15 13 -21 31 -21 23 0 26 4 26 34 0 19 -4
46 -10 60 -12 33 -32 32 -125 -3z"/>
<path d="M8846 5573 c-2 -10 -1 -139 2 -288 l7 -270 25 0 c25 0 25 1 28 95 l3
95 69 0 c79 0 113 18 142 76 36 70 16 225 -35 267 -37 31 -99 26 -179 -16 -5
-2 -8 10 -8 27 0 26 -4 31 -24 31 -15 0 -27 -7 -30 -17z m195 -73 c17 0 39
-67 39 -115 0 -91 -52 -136 -131 -115 l-39 11 0 89 c0 85 1 89 28 108 30 22
60 32 80 26 8 -2 18 -4 23 -4z"/>
<path d="M5784 5571 c-10 -11 -2 -49 12 -55 9 -3 54 -6 100 -6 46 0 84 -3 84
-6 0 -15 -124 -184 -164 -224 -26 -25 -46 -53 -46 -66 0 -20 3 -21 148 -19
l147 1 0 25 c0 20 -7 26 -50 37 -27 7 -65 11 -82 9 -18 -1 -33 0 -33 3 0 4 33
53 73 110 106 150 108 153 105 174 -3 19 -12 20 -146 21 -79 0 -145 -1 -148
-4z"/>
<path d="M7973 5547 c-15 -30 -14 -104 2 -141 6 -14 5 -17 -3 -12 -20 12 -14
-19 9 -49 16 -19 19 -29 10 -34 -9 -6 -9 -11 2 -19 15 -13 88 -45 91 -40 1 2
7 15 14 31 7 17 19 27 33 27 19 0 20 4 17 70 -2 39 0 70 4 70 15 0 -7 43 -42
83 -33 36 -43 42 -79 43 -37 0 -44 -3 -58 -29z m104 -17 c17 -10 36 -27 41
-37 13 -27 15 -153 3 -153 -6 0 -12 19 -13 43 l-1 42 -7 -45 c-10 -67 -20 -90
-40 -90 -17 0 -50 30 -34 30 5 0 2 6 -7 13 -24 19 -31 47 -12 47 14 0 14 3 -3
21 -27 30 -27 115 0 135 26 18 35 18 73 -6z"/>
<path d="M12138 5570 c-15 -4 -41 -18 -57 -29 l-30 -22 -7 26 c-4 18 -13 25
-30 25 l-24 0 2 -187 c3 -180 4 -188 23 -188 19 0 20 8 25 115 6 133 17 157
84 190 23 11 47 20 54 20 6 0 14 -20 18 -46 5 -39 9 -45 28 -42 18 3 21 11 24
59 4 82 -26 104 -110 79z"/>
<path d="M12700 5565 c-9 -11 -1 -43 44 -162 69 -182 77 -197 101 -201 21 -3
32 20 133 267 31 77 33 85 18 99 -27 28 -45 4 -95 -122 -25 -65 -50 -117 -56
-116 -5 1 -28 53 -50 114 -22 61 -44 117 -48 124 -11 16 -32 15 -47 -3z"/>
<path d="M6235 5551 c-42 -25 -65 -53 -81 -98 -20 -58 -17 -122 9 -173 31 -61
65 -84 127 -84 62 0 96 23 128 84 44 87 23 230 -40 274 -31 22 -106 20 -143
-3z m127 -72 c22 -25 32 -107 18 -144 -37 -97 -144 -102 -169 -7 -18 67 11
145 62 167 37 16 65 11 89 -16z"/>
<path d="M6609 5550 c-73 -38 -112 -176 -75 -263 17 -43 68 -85 111 -93 52 -9
123 29 149 81 28 55 33 153 11 211 -30 79 -115 107 -196 64z m122 -69 c26 -27
29 -36 29 -96 0 -60 -3 -69 -29 -96 -60 -59 -139 -26 -148 63 -7 72 49 157
105 158 8 0 27 -13 43 -29z"/>
<path d="M10011 5557 c-8 -10 -11 -63 -9 -178 l3 -164 25 0 25 0 0 175 c0 152
-2 175 -16 178 -9 1 -21 -4 -28 -11z"/>
<path d="M10455 5551 c-89 -55 -125 -154 -95 -263 23 -80 112 -116 196 -79
l47 21 23 -21 c14 -13 29 -19 40 -15 17 7 17 10 -11 106 -15 52 -15 142 1 207
14 54 -134 86 -201 44z m110 -37 c18 -5 20 -14 22 -118 l2 -112 -29 -17 c-61
-36 -122 -13 -140 53 -19 69 12 143 74 181 33 20 40 22 71 13z"/>
<path d="M11660 5548 c-54 -36 -82 -97 -84 -177 -1 -49 4 -74 19 -99 41 -68
163 -93 255 -51 49 22 60 34 60 67 0 28 -30 30 -54 3 -43 -47 -159 -46 -204 2
l-22 23 111 54 c144 71 168 105 115 167 -21 24 -32 28 -92 31 -60 3 -74 1
-104 -20z"/>
<path d="M13135 5545 c-22 -13 -51 -40 -65 -61 -51 -76 -34 -236 29 -268 52
-27 96 -29 145 -7 46 20 47 20 66 1 21 -21 45 -26 55 -11 3 6 -4 37 -15 70
-21 63 -26 163 -12 216 12 39 6 52 -28 70 -46 24 -128 19 -175 -10z m123 -34
c9 -5 14 -41 17 -115 3 -104 2 -107 -22 -126 -59 -46 -137 -12 -148 65 -9 56
7 104 48 142 43 41 77 52 105 34z"/>
<path d="M8243 5430 c-24 -14 -36 -32 -47 -71 -11 -36 -31 -68 -66 -105 -40
-42 -50 -60 -50 -87 0 -46 34 -89 69 -87 43 3 47 1 91 -35 51 -43 81 -44 142
-6 25 16 55 34 68 41 20 11 21 10 15 -10 -7 -21 -6 -21 17 -7 12 8 38 18 56
22 23 5 33 13 37 31 3 13 7 36 10 50 4 17 -4 47 -24 87 -16 34 -38 83 -49 109
-17 39 -26 48 -59 57 -21 6 -52 11 -70 11 -17 0 -35 5 -38 10 -10 17 -68 11
-102 -10z m84 -31 c5 -5 38 -10 72 -10 67 -1 82 -12 97 -74 4 -16 17 -43 30
-60 30 -40 30 -119 0 -141 -27 -19 -57 -19 -50 1 5 12 1 13 -26 4 -37 -13 -45
-8 -31 19 13 24 45 34 62 18 9 -8 11 -6 6 9 -2 11 -8 28 -12 38 -6 14 -3 16
11 11 17 -5 17 -4 -1 11 -11 9 -33 23 -50 31 -29 15 -30 15 -9 -3 12 -10 24
-30 28 -45 5 -23 3 -28 -12 -28 -11 0 -32 -10 -47 -22 -23 -18 -26 -27 -22
-55 5 -29 2 -35 -23 -48 -39 -20 -53 -19 -75 5 -28 31 -84 63 -114 65 -22 1
-26 6 -29 38 -3 31 3 43 32 73 22 23 41 56 51 91 13 45 22 57 48 68 39 17 50
18 64 4z"/>
</g>
</svg>
